# Blender v2.79 (sub 0) OBJ File: 'untitled.blend'
# www.blender.org
mtllib silly.mtl
o Cylinder
v -3.500000 0.000000 -3.750000
v -3.500000 30.000000 -3.750000
v -3.451227 0.000000 -3.745196
v -3.451227 30.000000 -3.745196
v -3.404329 0.000000 -3.730970
v -3.404329 30.000000 -3.730970
v -3.361107 0.000000 -3.707867
v -3.361107 30.000000 -3.707867
v -3.323223 0.000000 -3.676777
v -3.323223 30.000000 -3.676777
v -3.292133 0.000000 -3.638893
v -3.292133 30.000000 -3.638893
v -3.269030 0.000000 -3.595671
v -3.269030 30.000000 -3.595671
v -3.254804 0.000000 -3.548773
v -3.254804 30.000000 -3.548773
v -3.250000 0.000000 -3.500000
v -3.250000 30.000000 -3.500000
v -3.254804 0.000000 -3.451227
v -3.254804 30.000000 -3.451227
v -3.269030 0.000000 -3.404329
v -3.269030 30.000000 -3.404329
v -3.292133 0.000000 -3.361107
v -3.292133 30.000000 -3.361107
v -3.323223 0.000000 -3.323223
v -3.323223 30.000000 -3.323223
v -3.361107 0.000000 -3.292133
v -3.361107 30.000000 -3.292133
v -3.404329 0.000000 -3.269030
v -3.404329 30.000000 -3.269030
v -3.451227 0.000000 -3.254804
v -3.451227 30.000000 -3.254804
v -3.500000 0.000000 -3.250000
v -3.500000 30.000000 -3.250000
v -3.548773 0.000000 -3.254804
v -3.548773 30.000000 -3.254804
v -3.595671 0.000000 -3.269030
v -3.595671 30.000000 -3.269030
v -3.638893 0.000000 -3.292133
v -3.638893 30.000000 -3.292133
v -3.676777 0.000000 -3.323223
v -3.676777 30.000000 -3.323223
v -3.707868 0.000000 -3.361108
v -3.707868 30.000000 -3.361108
v -3.730970 0.000000 -3.404329
v -3.730970 30.000000 -3.404329
v -3.745196 0.000000 -3.451228
v -3.745196 30.000000 -3.451228
v -3.750000 0.000000 -3.500000
v -3.750000 30.000000 -3.500000
v -3.745196 0.000000 -3.548773
v -3.745196 30.000000 -3.548773
v -3.730970 0.000000 -3.595671
v -3.730970 30.000000 -3.595671
v -3.707867 0.000000 -3.638893
v -3.707867 30.000000 -3.638893
v -3.676776 0.000000 -3.676777
v -3.676776 30.000000 -3.676777
v -3.638892 0.000000 -3.707868
v -3.638892 30.000000 -3.707868
v -3.595670 0.000000 -3.730970
v -3.595670 30.000000 -3.730970
v -3.548772 0.000000 -3.745196
v -3.548772 30.000000 -3.745196
vn 0.0980 0.0000 -0.9952
vn 0.2903 0.0000 -0.9569
vn 0.4714 0.0000 -0.8819
vn 0.6344 0.0000 -0.7730
vn 0.7730 0.0000 -0.6344
vn 0.8819 0.0000 -0.4714
vn 0.9569 0.0000 -0.2903
vn 0.9952 0.0000 -0.0980
vn 0.9952 0.0000 0.0980
vn 0.9569 0.0000 0.2903
vn 0.8819 0.0000 0.4714
vn 0.7730 0.0000 0.6344
vn 0.6344 0.0000 0.7730
vn 0.4714 0.0000 0.8819
vn 0.2903 0.0000 0.9569
vn 0.0980 0.0000 0.9952
vn -0.0980 0.0000 0.9952
vn -0.2903 0.0000 0.9569
vn -0.4714 0.0000 0.8819
vn -0.6344 0.0000 0.7730
vn -0.7730 0.0000 0.6344
vn -0.8819 0.0000 0.4714
vn -0.9569 0.0000 0.2903
vn -0.9952 0.0000 0.0980
vn -0.9952 0.0000 -0.0980
vn -0.9569 0.0000 -0.2903
vn -0.8819 0.0000 -0.4714
vn -0.7730 0.0000 -0.6344
vn -0.6344 0.0000 -0.7730
vn -0.4714 0.0000 -0.8819
vn 0.0000 1.0000 -0.0000
vn -0.2903 0.0000 -0.9569
vn -0.0980 0.0000 -0.9952
vn 0.0000 -1.0000 0.0000
usemtl None
s off
f 1//1 2//1 4//1 3//1
f 3//2 4//2 6//2 5//2
f 5//3 6//3 8//3 7//3
f 7//4 8//4 10//4 9//4
f 9//5 10//5 12//5 11//5
f 11//6 12//6 14//6 13//6
f 13//7 14//7 16//7 15//7
f 15//8 16//8 18//8 17//8
f 17//9 18//9 20//9 19//9
f 19//10 20//10 22//10 21//10
f 21//11 22//11 24//11 23//11
f 23//12 24//12 26//12 25//12
f 25//13 26//13 28//13 27//13
f 27//14 28//14 30//14 29//14
f 29//15 30//15 32//15 31//15
f 31//16 32//16 34//16 33//16
f 33//17 34//17 36//17 35//17
f 35//18 36//18 38//18 37//18
f 37//19 38//19 40//19 39//19
f 39//20 40//20 42//20 41//20
f 41//21 42//21 44//21 43//21
f 43//22 44//22 46//22 45//22
f 45//23 46//23 48//23 47//23
f 47//24 48//24 50//24 49//24
f 49//25 50//25 52//25 51//25
f 51//26 52//26 54//26 53//26
f 53//27 54//27 56//27 55//27
f 55//28 56//28 58//28 57//28
f 57//29 58//29 60//29 59//29
f 59//30 60//30 62//30 61//30
f 4//31 2//31 64//31 62//31 60//31 58//31 56//31 54//31 52//31 50//31 48//31 46//31 44//31 42//31 40//31 38//31 36//31 34//31 32//31 30//31 28//31 26//31 24//31 22//31 20//31 18//31 16//31 14//31 12//31 10//31 8//31 6//31
f 61//32 62//32 64//32 63//32
f 63//33 64//33 2//33 1//33
f 1//34 3//34 5//34 7//34 9//34 11//34 13//34 15//34 17//34 19//34 21//34 23//34 25//34 27//34 29//34 31//34 33//34 35//34 37//34 39//34 41//34 43//34 45//34 47//34 49//34 51//34 53//34 55//34 57//34 59//34 61//34 63//34
o Plane
v -4.000000 30.000000 4.000000
v 4.000000 30.000000 4.000000
v -4.000000 30.000000 -4.000000
v 4.000000 30.000000 -4.000000
vn 0.0000 1.0000 0.0000
usemtl None
s off
f 65//35 66//35 68//35 67//35
o Cube
v 2.003475 0.010487 -2.006969
v 2.003500 -0.003475 1.993007
v -1.996494 -0.010457 1.993006
v -1.996518 0.003506 -2.006970
v 1.996495 4.010457 -1.993006
v 1.996517 3.996494 2.006970
v -2.003476 3.989513 2.006968
v -2.003500 4.003475 -1.993007
vn 0.0017 -1.0000 -0.0035
vn -0.0017 1.0000 0.0035
vn 1.0000 0.0017 0.0000
vn 0.0000 -0.0035 1.0000
vn -1.0000 -0.0017 -0.0000
vn -0.0000 0.0035 -1.0000
usemtl Material
s off
f 69//36 70//36 71//36 72//36
f 73//37 76//37 75//37 74//37
f 69//38 73//38 74//38 70//38
f 70//39 74//39 75//39 71//39
f 71//40 75//40 76//40 72//40
f 73//41 69//41 72//41 76//41
o Cylinder.001
v 3.500000 0.000000 -3.613928
v 3.500000 30.000000 -3.613928
v 3.548773 0.000000 -3.609125
v 3.548773 30.000000 -3.609125
v 3.595671 0.000000 -3.594898
v 3.595671 30.000000 -3.594898
v 3.638893 0.000000 -3.571796
v 3.638893 30.000000 -3.571796
v 3.676777 0.000000 -3.540705
v 3.676777 30.000000 -3.540705
v 3.707867 0.000000 -3.502821
v 3.707867 30.000000 -3.502821
v 3.730970 0.000000 -3.459599
v 3.730970 30.000000 -3.459599
v 3.745196 0.000000 -3.412701
v 3.745196 30.000000 -3.412701
v 3.750000 0.000000 -3.363928
v 3.750000 30.000000 -3.363928
v 3.745196 0.000000 -3.315156
v 3.745196 30.000000 -3.315156
v 3.730970 0.000000 -3.268258
v 3.730970 30.000000 -3.268258
v 3.707867 0.000000 -3.225036
v 3.707867 30.000000 -3.225036
v 3.676777 0.000000 -3.187152
v 3.676777 30.000000 -3.187152
v 3.638893 0.000000 -3.156061
v 3.638893 30.000000 -3.156061
v 3.595671 0.000000 -3.132958
v 3.595671 30.000000 -3.132958
v 3.548773 0.000000 -3.118732
v 3.548773 30.000000 -3.118732
v 3.500000 0.000000 -3.113928
v 3.500000 30.000000 -3.113928
v 3.451227 0.000000 -3.118732
v 3.451227 30.000000 -3.118732
v 3.404329 0.000000 -3.132958
v 3.404329 30.000000 -3.132958
v 3.361107 0.000000 -3.156061
v 3.361107 30.000000 -3.156061
v 3.323223 0.000000 -3.187152
v 3.323223 30.000000 -3.187152
v 3.292132 0.000000 -3.225036
v 3.292132 30.000000 -3.225036
v 3.269030 0.000000 -3.268258
v 3.269030 30.000000 -3.268258
v 3.254804 0.000000 -3.315156
v 3.254804 30.000000 -3.315156
v 3.250000 0.000000 -3.363929
v 3.250000 30.000000 -3.363929
v 3.254804 0.000000 -3.412701
v 3.254804 30.000000 -3.412701
v 3.269030 0.000000 -3.459599
v 3.269030 30.000000 -3.459599
v 3.292133 0.000000 -3.502821
v 3.292133 30.000000 -3.502821
v 3.323224 0.000000 -3.540705
v 3.323224 30.000000 -3.540705
v 3.361108 0.000000 -3.571796
v 3.361108 30.000000 -3.571796
v 3.404330 0.000000 -3.594898
v 3.404330 30.000000 -3.594898
v 3.451228 0.000000 -3.609125
v 3.451228 30.000000 -3.609125
vn 0.0980 0.0000 -0.9952
vn 0.2903 0.0000 -0.9569
vn 0.4714 0.0000 -0.8819
vn 0.6344 0.0000 -0.7730
vn 0.7730 0.0000 -0.6344
vn 0.8819 0.0000 -0.4714
vn 0.9569 0.0000 -0.2903
vn 0.9952 0.0000 -0.0980
vn 0.9952 0.0000 0.0980
vn 0.9569 0.0000 0.2903
vn 0.8819 0.0000 0.4714
vn 0.7730 0.0000 0.6344
vn 0.6344 0.0000 0.7730
vn 0.4714 0.0000 0.8819
vn 0.2903 0.0000 0.9569
vn 0.0980 0.0000 0.9952
vn -0.0980 0.0000 0.9952
vn -0.2903 0.0000 0.9569
vn -0.4714 0.0000 0.8819
vn -0.6344 0.0000 0.7730
vn -0.7730 0.0000 0.6344
vn -0.8819 0.0000 0.4714
vn -0.9569 0.0000 0.2903
vn -0.9952 0.0000 0.0980
vn -0.9952 0.0000 -0.0980
vn -0.9569 0.0000 -0.2903
vn -0.8819 0.0000 -0.4714
vn -0.7730 0.0000 -0.6344
vn -0.6344 0.0000 -0.7730
vn -0.4714 0.0000 -0.8819
vn 0.0000 1.0000 -0.0000
vn -0.2903 0.0000 -0.9569
vn -0.0980 0.0000 -0.9952
vn 0.0000 -1.0000 0.0000
usemtl None
s off
f 77//42 78//42 80//42 79//42
f 79//43 80//43 82//43 81//43
f 81//44 82//44 84//44 83//44
f 83//45 84//45 86//45 85//45
f 85//46 86//46 88//46 87//46
f 87//47 88//47 90//47 89//47
f 89//48 90//48 92//48 91//48
f 91//49 92//49 94//49 93//49
f 93//50 94//50 96//50 95//50
f 95//51 96//51 98//51 97//51
f 97//52 98//52 100//52 99//52
f 99//53 100//53 102//53 101//53
f 101//54 102//54 104//54 103//54
f 103//55 104//55 106//55 105//55
f 105//56 106//56 108//56 107//56
f 107//57 108//57 110//57 109//57
f 109//58 110//58 112//58 111//58
f 111//59 112//59 114//59 113//59
f 113//60 114//60 116//60 115//60
f 115//61 116//61 118//61 117//61
f 117//62 118//62 120//62 119//62
f 119//63 120//63 122//63 121//63
f 121//64 122//64 124//64 123//64
f 123//65 124//65 126//65 125//65
f 125//66 126//66 128//66 127//66
f 127//67 128//67 130//67 129//67
f 129//68 130//68 132//68 131//68
f 131//69 132//69 134//69 133//69
f 133//70 134//70 136//70 135//70
f 135//71 136//71 138//71 137//71
f 80//72 78//72 140//72 138//72 136//72 134//72 132//72 130//72 128//72 126//72 124//72 122//72 120//72 118//72 116//72 114//72 112//72 110//72 108//72 106//72 104//72 102//72 100//72 98//72 96//72 94//72 92//72 90//72 88//72 86//72 84//72 82//72
f 137//73 138//73 140//73 139//73
f 139//74 140//74 78//74 77//74
f 77//75 79//75 81//75 83//75 85//75 87//75 89//75 91//75 93//75 95//75 97//75 99//75 101//75 103//75 105//75 107//75 109//75 111//75 113//75 115//75 117//75 119//75 121//75 123//75 125//75 127//75 129//75 131//75 133//75 135//75 137//75 139//75
o Cylinder.002
v 3.500000 0.000000 3.250000
v 3.500000 30.000000 3.250000
v 3.548773 0.000000 3.254804
v 3.548773 30.000000 3.254804
v 3.595671 0.000000 3.269030
v 3.595671 30.000000 3.269030
v 3.638893 0.000000 3.292133
v 3.638893 30.000000 3.292133
v 3.676777 0.000000 3.323223
v 3.676777 30.000000 3.323223
v 3.707867 0.000000 3.361107
v 3.707867 30.000000 3.361107
v 3.730970 0.000000 3.404329
v 3.730970 30.000000 3.404329
v 3.745196 0.000000 3.451227
v 3.745196 30.000000 3.451227
v 3.750000 0.000000 3.500000
v 3.750000 30.000000 3.500000
v 3.745196 0.000000 3.548773
v 3.745196 30.000000 3.548773
v 3.730970 0.000000 3.595671
v 3.730970 30.000000 3.595671
v 3.707867 0.000000 3.638893
v 3.707867 30.000000 3.638893
v 3.676777 0.000000 3.676777
v 3.676777 30.000000 3.676777
v 3.638893 0.000000 3.707867
v 3.638893 30.000000 3.707867
v 3.595671 0.000000 3.730970
v 3.595671 30.000000 3.730970
v 3.548773 0.000000 3.745196
v 3.548773 30.000000 3.745196
v 3.500000 0.000000 3.750000
v 3.500000 30.000000 3.750000
v 3.451227 0.000000 3.745196
v 3.451227 30.000000 3.745196
v 3.404329 0.000000 3.730970
v 3.404329 30.000000 3.730970
v 3.361107 0.000000 3.707867
v 3.361107 30.000000 3.707867
v 3.323223 0.000000 3.676777
v 3.323223 30.000000 3.676777
v 3.292132 0.000000 3.638892
v 3.292132 30.000000 3.638892
v 3.269030 0.000000 3.595671
v 3.269030 30.000000 3.595671
v 3.254804 0.000000 3.548772
v 3.254804 30.000000 3.548772
v 3.250000 0.000000 3.500000
v 3.250000 30.000000 3.500000
v 3.254804 0.000000 3.451227
v 3.254804 30.000000 3.451227
v 3.269030 0.000000 3.404329
v 3.269030 30.000000 3.404329
v 3.292133 0.000000 3.361107
v 3.292133 30.000000 3.361107
v 3.323224 0.000000 3.323223
v 3.323224 30.000000 3.323223
v 3.361108 0.000000 3.292132
v 3.361108 30.000000 3.292132
v 3.404330 0.000000 3.269030
v 3.404330 30.000000 3.269030
v 3.451228 0.000000 3.254804
v 3.451228 30.000000 3.254804
vn 0.0980 0.0000 -0.9952
vn 0.2903 0.0000 -0.9569
vn 0.4714 0.0000 -0.8819
vn 0.6344 0.0000 -0.7730
vn 0.7730 0.0000 -0.6344
vn 0.8819 0.0000 -0.4714
vn 0.9569 0.0000 -0.2903
vn 0.9952 0.0000 -0.0980
vn 0.9952 0.0000 0.0980
vn 0.9569 0.0000 0.2903
vn 0.8819 0.0000 0.4714
vn 0.7730 0.0000 0.6344
vn 0.6344 0.0000 0.7730
vn 0.4714 0.0000 0.8819
vn 0.2903 0.0000 0.9569
vn 0.0980 0.0000 0.9952
vn -0.0980 0.0000 0.9952
vn -0.2903 0.0000 0.9569
vn -0.4714 0.0000 0.8819
vn -0.6344 0.0000 0.7730
vn -0.7730 0.0000 0.6344
vn -0.8819 0.0000 0.4714
vn -0.9569 0.0000 0.2903
vn -0.9952 0.0000 0.0980
vn -0.9952 0.0000 -0.0980
vn -0.9569 0.0000 -0.2903
vn -0.8819 0.0000 -0.4714
vn -0.7730 0.0000 -0.6344
vn -0.6344 0.0000 -0.7730
vn -0.4714 0.0000 -0.8819
vn 0.0000 1.0000 -0.0000
vn -0.2903 0.0000 -0.9569
vn -0.0980 0.0000 -0.9952
vn 0.0000 -1.0000 0.0000
usemtl None
s off
f 141//76 142//76 144//76 143//76
f 143//77 144//77 146//77 145//77
f 145//78 146//78 148//78 147//78
f 147//79 148//79 150//79 149//79
f 149//80 150//80 152//80 151//80
f 151//81 152//81 154//81 153//81
f 153//82 154//82 156//82 155//82
f 155//83 156//83 158//83 157//83
f 157//84 158//84 160//84 159//84
f 159//85 160//85 162//85 161//85
f 161//86 162//86 164//86 163//86
f 163//87 164//87 166//87 165//87
f 165//88 166//88 168//88 167//88
f 167//89 168//89 170//89 169//89
f 169//90 170//90 172//90 171//90
f 171//91 172//91 174//91 173//91
f 173//92 174//92 176//92 175//92
f 175//93 176//93 178//93 177//93
f 177//94 178//94 180//94 179//94
f 179//95 180//95 182//95 181//95
f 181//96 182//96 184//96 183//96
f 183//97 184//97 186//97 185//97
f 185//98 186//98 188//98 187//98
f 187//99 188//99 190//99 189//99
f 189//100 190//100 192//100 191//100
f 191//101 192//101 194//101 193//101
f 193//102 194//102 196//102 195//102
f 195//103 196//103 198//103 197//103
f 197//104 198//104 200//104 199//104
f 199//105 200//105 202//105 201//105
f 144//106 142//106 204//106 202//106 200//106 198//106 196//106 194//106 192//106 190//106 188//106 186//106 184//106 182//106 180//106 178//106 176//106 174//106 172//106 170//106 168//106 166//106 164//106 162//106 160//106 158//106 156//106 154//106 152//106 150//106 148//106 146//106
f 201//107 202//107 204//107 203//107
f 203//108 204//108 142//108 141//108
f 141//109 143//109 145//109 147//109 149//109 151//109 153//109 155//109 157//109 159//109 161//109 163//109 165//109 167//109 169//109 171//109 173//109 175//109 177//109 179//109 181//109 183//109 185//109 187//109 189//109 191//109 193//109 195//109 197//109 199//109 201//109 203//109
o Cylinder.003
v -3.500000 0.000000 3.250000
v -3.500000 30.000000 3.250000
v -3.451227 0.000000 3.254804
v -3.451227 30.000000 3.254804
v -3.404329 0.000000 3.269030
v -3.404329 30.000000 3.269030
v -3.361107 0.000000 3.292133
v -3.361107 30.000000 3.292133
v -3.323223 0.000000 3.323223
v -3.323223 30.000000 3.323223
v -3.292133 0.000000 3.361107
v -3.292133 30.000000 3.361107
v -3.269030 0.000000 3.404329
v -3.269030 30.000000 3.404329
v -3.254804 0.000000 3.451227
v -3.254804 30.000000 3.451227
v -3.250000 0.000000 3.500000
v -3.250000 30.000000 3.500000
v -3.254804 0.000000 3.548773
v -3.254804 30.000000 3.548773
v -3.269030 0.000000 3.595671
v -3.269030 30.000000 3.595671
v -3.292133 0.000000 3.638893
v -3.292133 30.000000 3.638893
v -3.323223 0.000000 3.676777
v -3.323223 30.000000 3.676777
v -3.361107 0.000000 3.707867
v -3.361107 30.000000 3.707867
v -3.404329 0.000000 3.730970
v -3.404329 30.000000 3.730970
v -3.451227 0.000000 3.745196
v -3.451227 30.000000 3.745196
v -3.500000 0.000000 3.750000
v -3.500000 30.000000 3.750000
v -3.548773 0.000000 3.745196
v -3.548773 30.000000 3.745196
v -3.595671 0.000000 3.730970
v -3.595671 30.000000 3.730970
v -3.638893 0.000000 3.707867
v -3.638893 30.000000 3.707867
v -3.676777 0.000000 3.676777
v -3.676777 30.000000 3.676777
v -3.707868 0.000000 3.638892
v -3.707868 30.000000 3.638892
v -3.730970 0.000000 3.595671
v -3.730970 30.000000 3.595671
v -3.745196 0.000000 3.548772
v -3.745196 30.000000 3.548772
v -3.750000 0.000000 3.500000
v -3.750000 30.000000 3.500000
v -3.745196 0.000000 3.451227
v -3.745196 30.000000 3.451227
v -3.730970 0.000000 3.404329
v -3.730970 30.000000 3.404329
v -3.707867 0.000000 3.361107
v -3.707867 30.000000 3.361107
v -3.676776 0.000000 3.323223
v -3.676776 30.000000 3.323223
v -3.638892 0.000000 3.292132
v -3.638892 30.000000 3.292132
v -3.595670 0.000000 3.269030
v -3.595670 30.000000 3.269030
v -3.548772 0.000000 3.254804
v -3.548772 30.000000 3.254804
vn 0.0980 0.0000 -0.9952
vn 0.2903 0.0000 -0.9569
vn 0.4714 0.0000 -0.8819
vn 0.6344 0.0000 -0.7730
vn 0.7730 0.0000 -0.6344
vn 0.8819 0.0000 -0.4714
vn 0.9569 0.0000 -0.2903
vn 0.9952 0.0000 -0.0980
vn 0.9952 0.0000 0.0980
vn 0.9569 0.0000 0.2903
vn 0.8819 0.0000 0.4714
vn 0.7730 0.0000 0.6344
vn 0.6344 0.0000 0.7730
vn 0.4714 0.0000 0.8819
vn 0.2903 0.0000 0.9569
vn 0.0980 0.0000 0.9952
vn -0.0980 0.0000 0.9952
vn -0.2903 0.0000 0.9569
vn -0.4714 0.0000 0.8819
vn -0.6344 0.0000 0.7730
vn -0.7730 0.0000 0.6344
vn -0.8819 0.0000 0.4714
vn -0.9569 0.0000 0.2903
vn -0.9952 0.0000 0.0980
vn -0.9952 0.0000 -0.0980
vn -0.9569 0.0000 -0.2903
vn -0.8819 0.0000 -0.4714
vn -0.7730 0.0000 -0.6344
vn -0.6344 0.0000 -0.7730
vn -0.4714 0.0000 -0.8819
vn 0.0000 1.0000 -0.0000
vn -0.2903 0.0000 -0.9569
vn -0.0980 0.0000 -0.9952
vn 0.0000 -1.0000 0.0000
usemtl None
s off
f 205//110 206//110 208//110 207//110
f 207//111 208//111 210//111 209//111
f 209//112 210//112 212//112 211//112
f 211//113 212//113 214//113 213//113
f 213//114 214//114 216//114 215//114
f 215//115 216//115 218//115 217//115
f 217//116 218//116 220//116 219//116
f 219//117 220//117 222//117 221//117
f 221//118 222//118 224//118 223//118
f 223//119 224//119 226//119 225//119
f 225//120 226//120 228//120 227//120
f 227//121 228//121 230//121 229//121
f 229//122 230//122 232//122 231//122
f 231//123 232//123 234//123 233//123
f 233//124 234//124 236//124 235//124
f 235//125 236//125 238//125 237//125
f 237//126 238//126 240//126 239//126
f 239//127 240//127 242//127 241//127
f 241//128 242//128 244//128 243//128
f 243//129 244//129 246//129 245//129
f 245//130 246//130 248//130 247//130
f 247//131 248//131 250//131 249//131
f 249//132 250//132 252//132 251//132
f 251//133 252//133 254//133 253//133
f 253//134 254//134 256//134 255//134
f 255//135 256//135 258//135 257//135
f 257//136 258//136 260//136 259//136
f 259//137 260//137 262//137 261//137
f 261//138 262//138 264//138 263//138
f 263//139 264//139 266//139 265//139
f 208//140 206//140 268//140 266//140 264//140 262//140 260//140 258//140 256//140 254//140 252//140 250//140 248//140 246//140 244//140 242//140 240//140 238//140 236//140 234//140 232//140 230//140 228//140 226//140 224//140 222//140 220//140 218//140 216//140 214//140 212//140 210//140
f 265//141 266//141 268//141 267//141
f 267//142 268//142 206//142 205//142
f 205//143 207//143 209//143 211//143 213//143 215//143 217//143 219//143 221//143 223//143 225//143 227//143 229//143 231//143 233//143 235//143 237//143 239//143 241//143 243//143 245//143 247//143 249//143 251//143 253//143 255//143 257//143 259//143 261//143 263//143 265//143 267//143
